<svg id="Layer_1" data-name="Layer 1" xmlns="http://www.w3.org/2000/svg" viewBox="0 0 480.1 165.7"><defs><style>.cls-1{fill:#1b4f90}.cls-3{fill:#0094c8}</style></defs><path class="cls-1" d="M422.8 32.2a17.5 17.5 0 0 1 9.5 3.1 5.3 5.3 0 0 0 2.8 1 3.63 3.63 0 0 0 2.8-1.2 3.92 3.92 0 0 0 .8-3.2 5.1 5.1 0 0 0-2.8-3.8 29.82 29.82 0 0 0-13.5-3.8c-5 0-9.1 1.6-11.5 4.5a11.3 11.3 0 0 0-2.4 9.2c1 6.4 6.4 9 13.4 11.7 4.3 1.7 6 3 6.3 4.6a3 3 0 0 1-.7 2.6 6 6 0 0 1-4.5 1.6 19.66 19.66 0 0 1-11.8-4.1 5.4 5.4 0 0 0-3-1.1 3.42 3.42 0 0 0-2.7 1.2 3.92 3.92 0 0 0-.8 3.2 4.91 4.91 0 0 0 2.3 3.5 29.39 29.39 0 0 0 16.3 5.2c5.1 0 9.3-1.6 11.8-4.6a11.65 11.65 0 0 0 2.4-9.4c-1-6.2-6.9-9-12.9-11.4-4.8-1.9-6.6-3.1-6.8-4.8a3.07 3.07 0 0 1 .6-2.5 5.71 5.71 0 0 1 4.4-1.5z"/><ellipse class="cls-1" cx="255.3" cy="9.2" rx="5.4" ry="5.3"/><path class="cls-1" d="M425.1 15c3.1-.8 3.9-1.8 4.2-4.4-2-.4-4.3-2.6-3.9-4.9v-.1c.4-3 2.7-4.5 5.7-4.5 8.4-.1 5.7 12.6-.2 15.6-2.4 1.2-3.9 1-5.9 1.8-2.4.9-2.2-.6-2-1.7a2.77 2.77 0 0 1 2.1-1.8zm-10.9-8.6h-35.6a4.27 4.27 0 0 0-4.3 4.3v.7a4.27 4.27 0 0 0 4.3 4.3h11.5l-7.6 48.4a5.11 5.11 0 0 0 5.1 5.9 5.16 5.16 0 0 0 5.1-4.3l7.8-50h13.7a4.65 4.65 0 1 0 0-9.3zM246.5 63.8a4.72 4.72 0 0 0 4.6-3.9l6.5-35.4a4.69 4.69 0 0 0-4.6-5.4 4.72 4.72 0 0 0-4.6 3.9l-6.5 35.4a4.69 4.69 0 0 0 4.6 5.4z"/><path class="cls-1" d="M219.6 0h-25.3a4.5 4.5 0 0 0-4.4 3.7l-13.8 76.1a4.26 4.26 0 0 0 4.2 5.1h2c2.2 0 3.6-1.6 4-3.7l4.7-26.1 12.7-3.7C246.1 38.1 257.2 0 219.6 0zm-18.3 41.6L193 44l6.2-34.2h20.2c21.9 0 12.4 21.9-18.1 31.8zm152.7-22c-14.8 0-28.1 11.8-29.6 26.4s9.2 26.4 24 26.4S376.5 60.6 378 46s-9.2-26.4-24-26.4zm-4.6 43.3a15.21 15.21 0 0 1-15.5-17c.9-9.4 9.5-17 19.1-17a15.21 15.21 0 0 1 15.5 17c-.9 9.4-9.6 17-19.1 17zm-39.2-51.6l-7.5 48.2-21.6-43.6a7.09 7.09 0 0 0-6.3-4c-3.5 0-5.5 2.3-6.1 5.7l-8.1 52a5 5 0 0 0 4.8 6h.1a5 5 0 0 0 5-4.3l6.7-43.2 21.3 43.2c1.2 2.4 3.3 4.3 6 4.3 3.5 0 6-2.6 6.6-6l8.9-56.8a4.8 4.8 0 0 0-4.7-5.8h-.1a5.14 5.14 0 0 0-5 4.3zm125.7 76.6h-35.6a4.27 4.27 0 0 0-4.3 4.3v.7a4.27 4.27 0 0 0 4.3 4.3h11.5l-7.6 48.4a5.16 5.16 0 0 0 10.2 1.6l7.8-50h13.7a4.65 4.65 0 1 0 0-9.3z"/><path class="cls-1" d="M395.8 102.1h-35.6a4.27 4.27 0 0 0-4.3 4.3v.7a4.27 4.27 0 0 0 4.3 4.3h11.5l-7.6 48.4a5.16 5.16 0 0 0 10.2 1.6l7.8-50h13.7a4.69 4.69 0 0 0 4.7-4.7 4.61 4.61 0 0 0-4.7-4.6zm66.1 46.9h-26.2l2.7-17.2h18.8a4.4 4.4 0 0 0 0-8.8h-17.5l1.2-7.6h15.2a4.4 4.4 0 0 0 0-8.8h-20.9a2.8 2.8 0 0 0-2.8 2.4l-7.1 45.3a2.87 2.87 0 0 0 2.8 3.3h33.7a4.44 4.44 0 0 0 4.4-4.4 4.19 4.19 0 0 0-4.3-4.2zm-113-11.6h-26.2l2.7-17.2h18.8a4.4 4.4 0 1 0 0-8.8h-17.5l1.2-7.6h15.2a4.4 4.4 0 0 0 0-8.8h-20.9a2.8 2.8 0 0 0-2.8 2.4l-7.1 45.3a2.87 2.87 0 0 0 2.8 3.3h33.7a4.44 4.44 0 0 0 4.4-4.4 4.13 4.13 0 0 0-4.3-4.2zM232.3 79.9h-25.2a4.5 4.5 0 0 0-4.4 3.7l-13.8 76.1a4.26 4.26 0 0 0 4.2 5.1h2c2.2 0 3.6-1.6 4-3.7l4.7-26.1 12.7-3.7c42.4-13.3 53.5-51.4 15.8-51.4zm-18.2 41.6l-8.3 2.4 6.2-34.2h20.1c22 0 12.5 21.9-18 31.8z"/><path class="cls-1" d="M316.7 155.6h-18.9l9.3-59.4a4.19 4.19 0 0 0-4.1-4.8h-1.9a4.11 4.11 0 0 0-4.1 3.5l-10.5 66.8a2.87 2.87 0 0 0 2.8 3.3h27.4a4.7 4.7 0 0 0 0-9.4zM282.5 142l-7.6-42.5c-.4-2.9-1.9-4.9-4-4.9a5.71 5.71 0 0 0-5.2 3.5l-21.4 41.8c-3.2 6.2 5.3 9.3 8.1 2.6l2.7-5.6h17.3l.9 6.4c1.2 5.6 10.3 4 9.2-1.3zm-23.2-13.7l9.2-18.8 2.7 18.8h-11.9zM473 150.5h2a2.36 2.36 0 0 1 1.6.4 1.08 1.08 0 0 1 .5 1.1 1.61 1.61 0 0 1-.3.9 2.18 2.18 0 0 1-.8.5l1.1 2.3h-1.4l-1-2.1h-.6v2.1h-1.2v-5.2h.1zm1.3.7v1.5h.6a1.55 1.55 0 0 0 .8-.2.55.55 0 0 0 .3-.5.71.71 0 0 0-.3-.6 1.88 1.88 0 0 0-.8-.2h-.6z"/><path class="cls-1" d="M475 158.2a5.1 5.1 0 1 1 5.1-5.1 5.12 5.12 0 0 1-5.1 5.1zm0-9a3.9 3.9 0 1 0 3.9 3.9 3.84 3.84 0 0 0-3.9-3.9zM90 1.6C79.8 78.5 117.2 53.3 111.9 96c-1.4 11.1-4.5 45.3-5.6 54.8s-4.9 9.3-8.2 9.3H80.5c-5.3 0-8-5.4-8.6-8.8-1.6-8-2.3-23.2-2.4-34.4 21.4-6.7 34.3-32.3 20.2-57.1-1.2-1.7-2.1-2.2-5.7-2.2H71.5c1-17.1 2.3-35.5 3-54.2C77 2.9 88.3 1.6 90 1.6z"/><path class="cls-3" d="M98.4 3.1c-9.1 64.4 26.1 48.8 22.4 95 52.7-8.5 65.3-106.5-20.2-97-1.4.2-2 .7-2.2 2z"/><path d="M61 2.7c8.1 11.2 7.9 24.9 3.7 35a1 1 0 0 1-1.5.6c-13.3-5.6-14.6-21.5-2.7-34.9a1.48 1.48 0 0 0 .5-.7zM18.3 42.5c15.9 12.2 34.3 17 44.7 14.1 1.1-.3 1.4-.7 1.1-1.8-1.8-12.2-17.7-28.5-44.8-12.7a1.88 1.88 0 0 1-1 .4z" fill="#e16b2a"/><path class="cls-3" d="M46 117c-20-8.2-30.2-31.7-19.1-54.6H9.6c-20.1 30.3-9.1 70.9 37.3 81.1a2.76 2.76 0 0 0 3.3-2.9l-1.4-20A4.64 4.64 0 0 0 46 117z"/><path d="M84.7 63H71.2c-.9 15.7-1.6 31.2-1.7 47.1 17.4-6.7 25.4-29.6 15.2-47.1zM39.3 29.1a6.87 6.87 0 0 1-6.6-4.8 7.64 7.64 0 0 1 2.7-8.6 6.77 6.77 0 0 1 7.8.1 7.56 7.56 0 0 1 2.5 8.5 6.48 6.48 0 0 1-6.4 4.8zM64.2 63H34c-10.5 18-1.8 41.5 16.5 47.5 3.7 1.4 4.1 4.2 4.3 6.9.9 11.5 2.5 33.3 2.5 33.3-9.3 1-15 2.5-16.6 3.2-3.1 1.4-3.8 4.3 1.6 4.3h18.1c1.6 0 3.1.6 3-3-.3-14.3-1.1-68.7.8-92.2z" fill="#ad1d40"/></svg>